<svg xmlns="http://www.w3.org/2000/svg" xmlns:ns1="http://sozi.baierouge.fr" xmlns:svg="http://www.w3.org/2000/svg" xmlns:xlink="http://www.w3.org/1999/xlink" id="svg2" version="1.0" viewBox="0 0 293.44 196.18"><g id="capa1" transform="translate(-188 -277.95)"><g id="g10918" transform="matrix(1.7237 0 0 1.7237 -607.49 -522.37)"><rect id="rect4383" width="1.768" height="12.526" x="-61.505" y="784.77" rx="7.168" ry="1.565" transform="matrix(-.75552 .65512 .65512 .75552 0 0)" style="fill:#784421"/><rect id="rect4381" width="1.768" height="12.526" x="761.55" y="67.187" rx="7.168" ry="1.565" transform="matrix(.75552 .65512 -.65512 .75552 0 0)" style="fill:#784421"/><path id="path4348" d="m562.9 464.31c-12.05 7.87-11.38 13.81-13.07 27.16 0.34-13.81-3.12-22.48-9.79-26.94-10.21 5.06-11.35 19.88-8.44 36-25.29-11.37-70.48 7.98-70.09 27.58 5.66-1.48 12.78 2.05 17.99 6.4 9.78-2.09 20.98-1.09 26.74 9.46 10.01-5.46 19.83 5.95 22.56 9.62 1.62 16.27 4.95 19.45 12.48 24.53 11-2.99 18.52-13.56 22.35-22.12 4.76-6.91 14.07-7.04 22.76-2.69 6.68-9.99 15.99-8.14 25.55-5.18 5.57-3.86 13.46-6.44 19.81-2.61-4.98-35-35.73-43.47-63.89-45.21 5.89-8.67 1.8-26.93-4.96-36z" style="fill-rule:evenodd;fill:#d8bc78"/><path id="path4393" d="m627.01 540.1c-14.62-29.16-35.02-34.54-57.19-34.75-0.63 15.21-7.38 35.16-24.24 50.6 8.21-5.27 31.41-14.32 38.94-7.27 4.92-3.28 9.56-11.43 27.02-5.12 4.83-6.54 10.55-3.35 15.47-3.46z" style="fill-rule:evenodd;fill:#af9357"/><path id="path4391" d="m465.68 524c12.61-16.24 25.26-22.36 38.04-23.85 8.68-1.01 17.43 0.11 26.27 1.66-2.15 15.07-0.17 35.98 13.62 54.22-7.12-6.67-27.63-21.96-36.32-16.39-4.24-4.13-9.68-11.36-27.99-8.33-3.57-7.31-8.79-6.31-13.62-7.31z" style="fill-rule:evenodd;fill:#af9357"/><g id="g4361" transform="matrix(.30352 0 0 .30352 437.44 416.18)" style="stroke:#784421;stroke-width:3;stroke-linecap:round"><path id="path4357" d="m137.95 387.74c0.84-55.03 68.18-107.27 83.42-120.71" style="stroke:#784421;stroke-linecap:round;stroke-width:3;fill:none"/><path id="path4359" d="m226.04 420.82c13.64-36.75 23.64-88.25-3.01-153.79" style="stroke:#784421;stroke-linecap:round;stroke-width:3;fill:none"/></g><path id="path4367" d="m586.48 553.14c-7.7-14.83-3.86-32.53 1.21-49.35" style="stroke:#502d16;stroke-linecap:round;stroke-width:.91054;fill:none"/><path id="path4369" d="m612.15 548.13c-1.65-11.78-7.74-30.66-24.29-44.34" style="stroke:#502d16;stroke-linecap:round;stroke-width:.91054;fill:none"/><path id="path4375" d="m352.89 288.06a6.3996 6.3996 0 1 1 -0.02 -0.52" transform="matrix(.30352 0 0 .30352 437.44 416.18)" style="fill:#d40000"/><path id="path4379" d="m352.89 288.06a6.3996 6.3996 0 1 1 -0.02 -0.52" transform="matrix(.30352 0 0 .30352 449.72 416.93)" style="fill:#d40000"/><path id="path4387" d="m539.88 473.81c-8.17 1.8-8.48 19.95-6.7 24.74 4.08-1.95 9.58-0.58 13.81-1.66 0.03-10.57-1.37-18.38-7.11-23.08z" style="fill-rule:evenodd;fill:#ffb380"/><path id="path4389" d="m562.49 473.89c-7.8 3.39-11.09 18.1-10.3 23.15 4.38-1.1 8.69 2.54 13.05 2.33 3.57-8.15 4.93-19.08-2.75-25.48z" style="fill-rule:evenodd;fill:#ffb380"/><path id="path4385" d="m534.99 518.95c8.99 7.87 19.11 4.75 26.97 2.07-0.57 21.57-12.03 29.49-17.83 37.72-7.13-10.63-13.37-20.06-9.14-39.79z" style="fill-rule:evenodd;fill:#e9c6af"/><path id="path10916" d="m352.89 288.06a6.3996 6.3996 0 1 1 -0.02 -0.52" transform="matrix(.47573 0 0 .47573 383.48 376.15)" style="fill:#d40000"/></g></g><metadata/></svg>